<svg xmlns="http://www.w3.org/2000/svg" width="223" height="54" viewBox="0 0 223 54">
  <defs>
    <style>
      .cls-1 {
        fill: #fff;
        fill-rule: evenodd;
      }
    </style>
  </defs>
  <path id="common_img_logo_header.svg" data-name="common/img/logo/header.svg" class="cls-1" d="M49.037,158.312a18.09,18.09,0,0,0-6.2-3.322c-0.045-1.008-.2-4.364-0.228-5.036-0.017-.606-0.023-1.539-0.023-2.481,0-.85.007-1.71,0.019-2.34,1.813-.09,4.016-0.143,5.526-0.267l0.211-.018-0.2-2.477-0.231.045a45.048,45.048,0,0,1-5.3.443c0.019-1.065.154-4.635,0.255-4.888a4.14,4.14,0,0,1,.182-0.375,1.394,1.394,0,0,0,.192-0.5,0.419,0.419,0,0,0-.222-0.365,1.622,1.622,0,0,0-.626-0.164l-3.8-.449,0.023,0.255c0.131,1.475.131,2.758,0.131,3.111,0,0.564.089,2.7,0.1,3.5-1.534.077-3.135,0.09-4.117,0.09-0.478,0-.807,0-0.914,0a36.678,36.678,0,0,1-4.481-.195l-0.249-.032,0.083,2.587,0.21,0c3.322-.064,6.2-0.025,9.333-0.114,0,1.723.034,3.636,0.067,4.691,0.03,0.594.311,3.272,0.366,4.2-0.738-.082-2.022-0.139-2.935-0.17-0.112,0-.223,0-0.335,0-3.176,0-6.642,1.416-6.652,4.9a4.266,4.266,0,0,0,3.168,4.174,11.98,11.98,0,0,0,3.923.581h0.007c3.286,0,5-.8,5.884-1.94a5.3,5.3,0,0,0,.872-3.33,13.3,13.3,0,0,1,3.9,2.684l0.177,0.2,2.045-2.866Zm-9.765.163a2.9,2.9,0,0,1-.607,2.022,3.3,3.3,0,0,1-2.517.865c-1.811-.009-3.4-0.8-3.4-2.363,0-1.779,1.509-2.465,3.286-2.481h0.019a12.055,12.055,0,0,1,3.3.5c0,0.059,0,.114,0,0.165,0,0.611-.083.779-0.086,1.291M25.927,137a6.924,6.924,0,0,0-1.213-.242l-2.827-.452v0.247c0,0.422-.326,1.617-0.468,3.2A80.107,80.107,0,0,0,21,148.1c0,1.858.054,3.343,0.054,4.455a82.226,82.226,0,0,0,.9,10.558l0.024,0.2,3.779-.367-0.019-.208c-0.456-4.953-.739-8-0.739-11.38a96.489,96.489,0,0,1,.8-12.987,4.551,4.551,0,0,0,.436-1.041,0.394,0.394,0,0,0-.31-0.331m58.063,21.375,4.409-1.192-0.015-.172c-0.484-5.936-.891-11.654-6.443-16.887l-0.116-.109-0.135.077L80.041,141l0.137,0.188a14.817,14.817,0,0,1,2.607,5.523,52.748,52.748,0,0,1,1.221,7.933,14.818,14.818,0,0,1,.066,1.56c0,0.608-.021,1.278-0.061,1.869Zm-12.928-1.052c-1.227,2.169-2.518,2.575-2.825,2.566-0.748.006-1.555-.617-2.183-2.012a16.008,16.008,0,0,1-1.043-6.359c0-2.9.087-5.525,0.253-7.521a10.371,10.371,0,0,1,.681-3.665c0.054-.072.207-0.278,0.348-0.483a1.521,1.521,0,0,0,.306-0.568,0.469,0.469,0,0,0-.37-0.37c-0.461-.185-1.378-0.355-1.489-0.409l-0.085.192,0.047-.2-2.869-.618-0.046.2a66.738,66.738,0,0,0-1.023,13.183A16.73,16.73,0,0,0,63,160.2a5.318,5.318,0,0,0,4.515,2.775c2.575-.019,4.4-2.667,5.067-3.621l0.079-.114-1.422-2.23Zm54.332-3.872-0.164.04-1.927.471,0.074,0.216a10.35,10.35,0,0,1,.427,3.308c-0.015,1.743-.625,2.514-1.747,3a17.933,17.933,0,0,1-4.835.735h-1.209c-1.967.006-3.15-.108-3.789-0.673-0.65-.547-0.909-1.658-0.9-3.82,0-.928,0-1.9,0-2.9,0-3.269.016-6.849,0.164-10.291,2.254-.117,5.25-0.172,6.888-0.2l0.209,0-0.02-2.788-0.244.04a42.179,42.179,0,0,1-6.467.486,32.389,32.389,0,0,1,.324-3.336,3.718,3.718,0,0,1,.168-0.4,1.671,1.671,0,0,0,.17-0.47,0.592,0.592,0,0,0-.546-0.482,2.983,2.983,0,0,0-.657-0.073l-3.35-.267,0,0.226c0,0.334-.006.637-0.006,0.913,0,2.361.109,2.657,0.121,3.9-2.886.023-4.417,0.094-6.15,0.094-0.485,0-.985-0.006-1.534-0.019l-0.217,0-0.022,2.792,0.229-.015c2.2-.136,3.41-0.167,7.574-0.3-0.032,1.368-.094,2.242-0.127,4.447a3.935,3.935,0,0,0-2.088-.428c-3.132,0-4.836,2.611-4.842,5.328,0.006,3.154,2.09,5.706,4.674,5.723a0.017,0.017,0,0,0,.012,0h0a3.7,3.7,0,0,0,1.911-.429c0,0.154,0,.306,0,0.456,0,1.478.066,2.8,1.068,3.744s2.837,1.428,6.268,1.432l1.349-.017c3.7,0,6.28-.31,7.976-1.084a3.9,3.9,0,0,0,2.484-3.871c0-.125.036-0.437,0.036-0.872a9.685,9.685,0,0,0-1.193-4.452Zm-17.447,1.512-0.212-.015a1.765,1.765,0,0,1-1.691,1.316c-1.068,0-2.2-1-2.209-3.43,0.018-1.506.568-2.838,2.179-2.862h0.032a2.313,2.313,0,0,1,1.243.374,1.014,1.014,0,0,1,.507.634c0,0.425.006,0.838,0.007,1.221,0,1.508-.047,2.623-0.066,2.729Zm21.475-6.559a51.646,51.646,0,0,0-7.781-5.414l-0.162-.093-1.325,1.7,0.167,0.13a29.032,29.032,0,0,1,6.473,6.741l0.157,0.238,0.185-.221,2.442-2.952Zm60.606-8.975a21.264,21.264,0,0,1,5.6,3.3l0.187,0.163,2.352-3.762-0.242-.087a46.923,46.923,0,0,0-6.28-1.805c-0.627-.131-3.375-0.72-3.929-0.849l-0.165-.038-0.074.147-0.988,1.913,0.276,0.055a14.586,14.586,0,0,1,3.266.966m15.694,7.6,0.111,0.2,2.369-1.561-0.148-.178a21.583,21.583,0,0,0-3.572-3.4l-0.123-.092-0.127.085-1.57,1.059,0.186,0.18a17.024,17.024,0,0,1,2.874,3.711M188.8,154.169l-1.9-1.451-0.13.161a36.2,36.2,0,0,1-5.212,4.875,18.42,18.42,0,0,1-3.5,2.118l-0.265.123,0.2,0.211,2.869,2.965,0.152-.119c2.219-1.766,4.415-4.4,7.664-8.717Zm19.9,6.844c-0.885-2.5-2.533-4.215-6.561-8.414l-0.126-.132-0.149.107-1.652,1.154,0.161,0.174a14.662,14.662,0,0,1,2.028,2.751,16.508,16.508,0,0,1,2.384,6.2l0.05,0.271,3.925-1.934ZM188.8,144.38l-0.151-.092-1.709,1.848,0.211,0.135a15.683,15.683,0,0,1,6.174,6.384,9.716,9.716,0,0,1,1.1,4.318c-0.028,3.679-2.137,4.493-4.813,4.527a16.1,16.1,0,0,1-3.775-.388l-0.307-.052,0.063,0.3,0.5,2.421,0.169,0c1.691,0.029,3.047.029,4.538,0.029l0.162,0c2.339,0,4.579-.459,6.066-1.89a6.362,6.362,0,0,0,1.717-4.659,10.143,10.143,0,0,0-2.153-6.1,25.986,25.986,0,0,0-7.8-6.787m13.841,4.68,2.411-1.563-0.133-.177a23.286,23.286,0,0,0-3.706-3.893l-0.117-.1-0.131.081-1.574.988,0.178,0.184a15.929,15.929,0,0,1,2.97,4.256Zm39.211,1.9-0.065.2c-0.557,1.76-1.55,4.835-3.554,6.874a9.171,9.171,0,0,1-6.66,2.844c-0.283.013-4.07-.036-5.375-2.092a8.289,8.289,0,0,1-.892-4.23c0-1.932.568-15.846,0.756-16.619a7.161,7.161,0,0,0,.335-0.992,0.523,0.523,0,0,0-.268-0.482,1.911,1.911,0,0,0-.748-0.185l-0.022.209,0.016-.209L221.8,136l0.012,0.236c0,0.127.009,0.316,0.009,0.554,0,3.214-.572,15.377-0.572,18.158a10.71,10.71,0,0,0,1.423,6.045c1.247,1.844,3.568,3.18,7.7,3.18h0.019c9.635,0,12.218-7.538,13.562-12.339L244,151.64Zm-77.429-2.122a10.393,10.393,0,0,0-7.084-2.276,14.252,14.252,0,0,0-4.645.675c3.347-2.989,6.962-6.172,9.417-8.3l0.146-.128-1.75-2.345-0.13.024a58.238,58.238,0,0,1-8.346.427c-2.616,0-5.019-.071-6.02-0.143l-0.246-.018,0.191,2.713,0.228-.032c1.663-.243,4.783-0.218,10.506-0.332-4.271,4.192-11.035,10.29-15.657,14.371l-0.167.144L143.212,156l0.153-.137c3.626-3.286,7.118-7.18,12.906-7.178,5.124,0.016,6.372,3.449,6.4,6.112a6.361,6.361,0,0,1-3.273,5.791c-0.367-1.538-1.639-4.908-7.049-4.894-3.563.016-5.7,2.345-5.768,3.891,0,0.04,0,.085,0,0.13,0.012,2.841,2.885,4.354,7.784,4.358,6.9-.009,12.461-3.534,12.461-9.655a7.281,7.281,0,0,0-2.4-5.58M150.8,161.483a1.867,1.867,0,0,1-1.31-1.675,1.547,1.547,0,0,1,.877-1.352,4.184,4.184,0,0,1,2.041-.485c3.01-.01,3.583,2.71,3.754,3.921a10.063,10.063,0,0,1-1.9.18,8.63,8.63,0,0,1-3.46-.589M85.85,185.241l-0.086.085q-1.418-.049-1.962-0.051c-0.321,0-.831.018-1.527,0.051a5.762,5.762,0,0,0-.889-1.2l-2.564-2.892a15.557,15.557,0,0,0-1.8-1.722v2.03a19.142,19.142,0,0,0,.112,2.643,0.374,0.374,0,0,0,.294.317,9.662,9.662,0,0,0,1.008.086l0.087,0.085v0.571l-0.079.085q-0.862-.049-2.658-0.051c-1.236,0-2.124.018-2.659,0.051l-0.085-.077V184.67l0.085-.085a9.722,9.722,0,0,0,1.011-.086,0.375,0.375,0,0,0,.292-0.317,18.748,18.748,0,0,0,.113-2.643v-4.513a18.778,18.778,0,0,0-.113-2.643,0.375,0.375,0,0,0-.292-0.316,9.415,9.415,0,0,0-1.011-.086l-0.085-.085v-0.579l0.085-.077q0.831,0.049,2.659.05,1.874,0,2.658-.05l0.079,0.077v0.588l-0.087.076a9.358,9.358,0,0,0-1.008.086,0.374,0.374,0,0,0-.294.316,19.172,19.172,0,0,0-.112,2.643v2.117q1.613-1.487,2.314-2.2l1.226-1.255q0.629-.649,1.615-1.774v-0.588l0.094-.086c0.444,0.033.877,0.05,1.3,0.05q0.751,0,1.762-.05l0.086,0.086v0.528l-0.086.085a2.759,2.759,0,0,0-1.485.316,26.5,26.5,0,0,0-2.65,2.285l-1.745,1.638q0.372,0.5,1.21,1.46l1.933,2.217a19.894,19.894,0,0,0,2.487,2.618,1.87,1.87,0,0,0,.683.1l0.086,0.095v0.571Zm11.134-4.2q0,3.019-2.055,4.086a4.887,4.887,0,0,1-2.288.521,3.9,3.9,0,0,1-3.027-1.136,4.637,4.637,0,0,1-1.039-3.249q0-2.927,2.02-3.9a5.247,5.247,0,0,1,2.3-.478q2.753,0,3.651,1.885a5.274,5.274,0,0,1,.433,2.269m-2.392.7a7.14,7.14,0,0,0-.47-3.042,1.528,1.528,0,0,0-1.437-.916q-1.719,0-1.718,3.061,0,3.933,1.925,3.933a1.488,1.488,0,0,0,1.528-1.306,7.172,7.172,0,0,0,.173-1.73m15.3,3.5-0.086.093c-0.633-.039-1.17-0.059-1.607-0.059q-0.6,0-1.76.059l-0.087-.085q0.156-1.9.156-2.933v-1.673q0-2.082-1.519-2.081a1.533,1.533,0,0,0-1.261.555,1.745,1.745,0,0,0-.363,1.142v1.007c0,1.155.022,2.1,0.061,2.84a0.425,0.425,0,0,0,.189.409,3.16,3.16,0,0,0,1.028.128l0.1,0.086v0.52l-0.087.085q-0.821-.059-2.365-0.059t-2.358.059l-0.086-.085v-0.52l0.086-.086a3.134,3.134,0,0,0,1.028-.128,0.426,0.426,0,0,0,.19-0.409q0.059-1.108.061-3.88v-2.858c0-1.194-.022-2.161-0.061-2.9a0.468,0.468,0,0,0-.19-0.414,3.075,3.075,0,0,0-1-.123l-0.085-.093v-0.47l0.085-.094a17.125,17.125,0,0,0,3.342-.708l0.181,0.1c0,0.155-.008.436-0.026,0.846q-0.084,2.039-.087,4.511V178.5l1.52-1.262a3.307,3.307,0,0,1,1.253-.231,2.52,2.52,0,0,1,2.054.819,2.988,2.988,0,0,1,.551,1.953q0,0.145-.033,1.04c-0.025.6-.035,1.14-0.035,1.629q0,1.289.044,1.643a0.576,0.576,0,0,0,.2.447,2.467,2.467,0,0,0,.9.112l0.077,0.084v0.5Zm10.573-.017-0.095.093c-0.483-.028-1.039-0.042-1.665-0.042q-0.734,0-1.408.042l-0.078-.093,0.078-1.142-1.674,1.262a1.134,1.134,0,0,1-.571.178,2.893,2.893,0,0,1-.344.017,1.878,1.878,0,0,1-1.473-.571,2.271,2.271,0,0,1-.512-1.577,2.076,2.076,0,0,1,.853-1.886,11.21,11.21,0,0,1,3.721-1.093,1.993,1.993,0,0,0-.726-1.816,1.929,1.929,0,0,0-1.053-.281,1.821,1.821,0,0,0-1.062.272l-0.326.8-0.113.059-0.441-.1-0.06-.119,0.044-1.007a6.363,6.363,0,0,1,2.14-1.176,4.176,4.176,0,0,1,.785-0.059,2.982,2.982,0,0,1,2.426.877,3.05,3.05,0,0,1,.527,1.961c0,0.218-.008.563-0.026,1.042-0.03.795-.043,1.327-0.043,1.594,0,0.859.013,1.407,0.043,1.643a0.581,0.581,0,0,0,.2.447,1.992,1.992,0,0,0,.767.112l0.085,0.093v0.478Zm-3.168-1.987v-2.1a5.7,5.7,0,0,0-1.92.662,1.232,1.232,0,0,0-.5,1.078,0.972,0.972,0,0,0,1.028,1.16,1.588,1.588,0,0,0,1.391-.8m20.665,2-0.086.093q-0.5-.049-1.779-0.051c-0.707,0-1.211.018-1.51,0.051l-0.121-.163q0.138-2.123.138-3.095v-0.777a11.6,11.6,0,0,0-.078-1.68,1.436,1.436,0,0,0-.431-0.819,1.307,1.307,0,0,0-.916-0.306,1.63,1.63,0,0,0-1.078.358,1.132,1.132,0,0,0-.432.912V182.3l0.034,1.348a2.289,2.289,0,0,0,.095.717,0.34,0.34,0,0,0,.234.162,7.585,7.585,0,0,0,.838.111l0.094,0.084v0.514l-0.1.093c-0.7-.033-1.4-0.051-2.113-0.051q-1.331,0-2.28.051l-0.094-.093v-0.5l0.087-.1c0.361-.034.612-0.065,0.75-0.094a0.325,0.325,0,0,0,.225-0.255,5.047,5.047,0,0,0,.06-0.947l0.016-2.754a4.535,4.535,0,0,0-.145-1.365,1.087,1.087,0,0,0-.459-0.538,1.445,1.445,0,0,0-.794-0.2,1.574,1.574,0,0,0-1.235.513,1.046,1.046,0,0,0-.252.383,3.047,3.047,0,0,0-.041.64v1.851c0,0.364.012,0.837,0.034,1.416a9.666,9.666,0,0,0,.07,1.04,0.367,0.367,0,0,0,.29.244,3.188,3.188,0,0,0,.719.072l0.087,0.084v0.522l-0.087.085q-0.733-.049-2.192-0.051c-1.031,0-1.815.02-2.357,0.058l-0.086-.084v-0.52l0.086-.086a3.137,3.137,0,0,0,1.027-.128,0.43,0.43,0,0,0,.191-0.409q0.058-1.108.06-2.38v-1.219a7.509,7.509,0,0,0-.129-1.962,0.462,0.462,0,0,0-.372-0.213c-0.069-.012-0.319-0.026-0.75-0.044l-0.087-.084v-0.478l0.087-.094a14.95,14.95,0,0,0,3.27-.708l0.19,0.112-0.017,1.355,1.537-1.227a2.442,2.442,0,0,1,1-.187,3.087,3.087,0,0,1,1.544.319,2.228,2.228,0,0,1,.891,1.121l1.57-1.253a2.822,2.822,0,0,1,3.341,1,3.534,3.534,0,0,1,.285,1.621q0,0.453-.009.673l-0.008.325c-0.011.273-.018,0.455-0.018,0.545v1.109q0,1.289.043,1.642a0.583,0.583,0,0,0,.2.448,2.439,2.439,0,0,0,.881.111l0.086,0.094v0.5Zm10.6-.009-0.094.093q-0.724-.042-1.667-0.042-0.733,0-1.407.042l-0.077-.093,0.077-1.142-1.675,1.262a1.125,1.125,0,0,1-.569.178,2.9,2.9,0,0,1-.345.017,1.876,1.876,0,0,1-1.472-.571,2.268,2.268,0,0,1-.515-1.577,2.073,2.073,0,0,1,.856-1.886,11.186,11.186,0,0,1,3.72-1.093,2,2,0,0,0-.724-1.816,1.934,1.934,0,0,0-1.055-.281,1.82,1.82,0,0,0-1.061.272l-0.328.8-0.112.059-0.44-.1-0.06-.119,0.042-1.007a6.39,6.39,0,0,1,2.14-1.176,4.211,4.211,0,0,1,.788-0.059,2.983,2.983,0,0,1,2.425.877,3.056,3.056,0,0,1,.526,1.961c0,0.218-.008.563-0.026,1.042-0.029.795-.042,1.327-0.042,1.594,0,0.859.013,1.407,0.042,1.643a0.572,0.572,0,0,0,.2.447,1.954,1.954,0,0,0,.763.112l0.086,0.093v0.478Zm-3.168-1.987v-2.1a5.714,5.714,0,0,0-1.921.662,1.232,1.232,0,0,0-.5,1.078,0.971,0.971,0,0,0,1.028,1.16,1.588,1.588,0,0,0,1.389-.8m9.452-6.2a17.511,17.511,0,0,0-.113,2.618V181.1l0.019,2.508a11.734,11.734,0,0,1-.486,4.06,3.435,3.435,0,0,1-1.941,2.141,2.984,2.984,0,0,1-1.027.188,2.5,2.5,0,0,1-.329-0.024l-0.19-.616,0.086-.119a2.578,2.578,0,0,0,.259.017,1.159,1.159,0,0,0,1.193-.9,20.835,20.835,0,0,0,.258-4.35v-3.5a9.179,9.179,0,0,0-.113-1.9,0.392,0.392,0,0,0-.345-0.266c-0.085-.016-0.354-0.033-0.8-0.051l-0.087-.084v-0.478l0.087-.094a14.632,14.632,0,0,0,3.341-.708Zm0.059-2.918a1.325,1.325,0,1,1-.392-0.947,1.278,1.278,0,0,1,.392.947m8.882,11.131-0.087.085q-0.821-.059-2.366-0.06t-2.356.06l-0.086-.085v-0.52l0.086-.086a3.15,3.15,0,0,0,1.028-.128,0.425,0.425,0,0,0,.188-0.409q0.063-1.108.062-2.38v-1.219a7.753,7.753,0,0,0-.131-1.962,0.42,0.42,0,0,0-.369-0.213c-0.069-.012-0.321-0.026-0.751-0.044l-0.086-.084v-0.478l0.086-.094a14.5,14.5,0,0,0,3.341-.708l0.18,0.112q-0.111,1.551-.113,2.618v2.721c0,0.416.021,0.992,0.062,1.731a0.427,0.427,0,0,0,.189.409,3.145,3.145,0,0,0,1.028.128l0.095,0.086v0.52Zm-1.191-11.131a1.328,1.328,0,0,1-1.322,1.322,1.283,1.283,0,0,1-.941-0.388,1.325,1.325,0,0,1,0-1.881,1.3,1.3,0,0,1,.936-0.384,1.286,1.286,0,0,1,.928.384,1.273,1.273,0,0,1,.394.947m18.773,11.115-0.086.093q-0.5-.049-1.779-0.051c-0.707,0-1.211.018-1.511,0.051l-0.121-.163q0.139-2.123.139-3.095v-0.777a11.5,11.5,0,0,0-.077-1.68,1.442,1.442,0,0,0-.431-0.819,1.306,1.306,0,0,0-.916-0.306,1.638,1.638,0,0,0-1.08.358,1.136,1.136,0,0,0-.43.912V182.3l0.034,1.348a2.228,2.228,0,0,0,.095.717,0.341,0.341,0,0,0,.233.162,7.55,7.55,0,0,0,.837.111l0.094,0.084v0.514l-0.1.093q-1.046-.049-2.115-0.051-1.329,0-2.278.051l-0.1-.093v-0.5l0.086-.1q0.544-.051.751-0.094a0.322,0.322,0,0,0,.225-0.255,4.651,4.651,0,0,0,.059-0.947l0.019-2.754a4.455,4.455,0,0,0-.147-1.365,1.093,1.093,0,0,0-.457-0.538,1.45,1.45,0,0,0-.8-0.2,1.567,1.567,0,0,0-1.233.513,1.1,1.1,0,0,0-.256.383,3.284,3.284,0,0,0-.038.64v1.851c0,0.364.01,0.837,0.034,1.416a9.666,9.666,0,0,0,.07,1.04,0.367,0.367,0,0,0,.289.244,3.209,3.209,0,0,0,.721.072l0.086,0.084v0.522l-0.086.085c-0.49-.033-1.22-0.051-2.194-0.051q-1.543,0-2.356.058l-0.085-.084v-0.52l0.085-.086a3.15,3.15,0,0,0,1.028-.128,0.427,0.427,0,0,0,.189-0.409q0.06-1.108.06-2.38v-1.219a7.509,7.509,0,0,0-.129-1.962,0.461,0.461,0,0,0-.37-0.213c-0.07-.012-0.32-0.026-0.752-0.044l-0.086-.084v-0.478l0.086-.094a14.991,14.991,0,0,0,3.272-.708l0.19,0.112-0.018,1.355,1.537-1.227a2.443,2.443,0,0,1,1-.187,3.106,3.106,0,0,1,1.546.319,2.225,2.225,0,0,1,.889,1.121l1.571-1.253a2.822,2.822,0,0,1,3.341,1,3.548,3.548,0,0,1,.285,1.621q0,0.453-.01.673l-0.008.325c-0.012.273-.017,0.455-0.017,0.545v1.109q0,1.289.043,1.642a0.583,0.583,0,0,0,.2.448,2.42,2.42,0,0,0,.879.111l0.086,0.094v0.5Zm10.6-.009-0.095.093c-0.483-.028-1.037-0.042-1.666-0.042q-0.734,0-1.408.042l-0.076-.093,0.076-1.142-1.673,1.262a1.134,1.134,0,0,1-.571.178,2.877,2.877,0,0,1-.345.017,1.877,1.877,0,0,1-1.472-.571,2.281,2.281,0,0,1-.512-1.577,2.078,2.078,0,0,1,.853-1.886,11.219,11.219,0,0,1,3.72-1.093,1.992,1.992,0,0,0-.724-1.816,1.927,1.927,0,0,0-1.053-.281,1.821,1.821,0,0,0-1.062.272l-0.328.8-0.112.059-0.441-.1-0.059-.119,0.042-1.007a6.392,6.392,0,0,1,2.141-1.176,4.2,4.2,0,0,1,.786-0.059,2.984,2.984,0,0,1,2.426.877,3.056,3.056,0,0,1,.525,1.961c0,0.218-.007.563-0.025,1.042q-0.043,1.192-.043,1.594,0,1.289.043,1.643a0.578,0.578,0,0,0,.2.447,1.965,1.965,0,0,0,.764.112l0.086,0.093v0.478Zm-3.169-1.987v-2.1a5.716,5.716,0,0,0-1.919.662,1.231,1.231,0,0,0-.5,1.078,0.971,0.971,0,0,0,1.027,1.16,1.583,1.583,0,0,0,1.389-.8" transform="translate(-21 -136)"/>
</svg>
